<svg width="62" height="91" viewBox="0 0 62 91" fill="none" xmlns="http://www.w3.org/2000/svg">
<path fill-rule="evenodd" clip-rule="evenodd" d="M41.4058 26.1095C41.4609 25.8622 41.7394 25.6991 42.0263 25.7461C42.3151 25.793 42.5034 26.032 42.4497 26.2793C40.1082 36.8981 36.1272 46.8945 30.59 56.5832C28.4544 60.3191 25.1504 63.3626 22.886 67.0235C19.5542 72.4113 17.1664 78.3968 15.4595 84.4028C14.9449 86.2119 14.0444 87.4681 12.4088 88.832C12.1975 89.0072 11.8619 89.0026 11.6571 88.822C11.4531 88.6413 11.4585 88.3525 11.6683 88.1769C13.1444 86.9467 13.9634 85.8179 14.4278 84.1861C16.1561 78.1067 18.5767 72.0491 21.9484 66.5951C24.2075 62.943 27.5056 59.9083 29.6359 56.1812C35.132 46.5663 39.0828 36.647 41.4058 26.1095Z" fill="#A4DEE8"/>
<path fill-rule="evenodd" clip-rule="evenodd" d="M48.6064 14.6368C53.4016 11.4898 59.2387 13.4498 61.2207 16.4928C63.2012 19.5359 61.3241 23.6629 56.5289 26.8094C53.0782 29.2187 46.4171 30.55 41.1009 31.1435C37.6609 27.6104 33.8145 22.7516 33.1774 18.9709C32.1359 13.8643 34.0115 9.73733 37.8692 8.65424C41.7253 7.57073 47.5634 9.53027 48.6064 14.6368Z" fill="#F1BCFF"/>
<path fill-rule="evenodd" clip-rule="evenodd" d="M58.086 16.5423C58.0324 16.4556 58.0699 16.3478 58.1709 16.3013C58.2709 16.2548 58.3968 16.2871 58.4504 16.3738C58.9265 16.9066 59.3133 17.4112 59.6158 17.9377C59.7616 18.1921 59.8719 18.4457 59.968 18.701C60.0817 19.0069 60.1592 19.3104 60.2002 19.6135C60.2426 19.9349 60.2441 20.2548 60.1953 20.5662C60.0968 21.1891 59.8441 21.7842 59.4373 22.3421C58.9329 23.0321 58.2124 23.6533 57.2367 24.2384C57.1509 24.3055 57.0172 24.2996 56.9397 24.2254C56.8611 24.1516 56.8684 24.0372 56.9548 23.9701C57.4055 23.5128 57.7411 23.0635 58.0236 22.6142C58.3255 22.1301 58.5055 21.6531 58.6216 21.1698C58.6929 20.8785 58.7153 20.5871 58.7353 20.2912C58.7543 19.9982 58.7616 19.7027 58.7402 19.3972C58.7153 19.0346 58.6753 18.667 58.5929 18.2785C58.4758 17.7227 58.3333 17.1551 58.086 16.5423Z" fill="white"/>
<path fill-rule="evenodd" clip-rule="evenodd" d="M30.1905 19.0281C30.2827 18.7892 30.5837 18.6596 30.8622 18.7389C31.1393 18.8185 31.2905 19.0767 31.1983 19.316C28.9402 25.1506 28.9027 30.8251 29.0114 36.4355C29.1227 42.1352 29.3822 47.7698 27.7139 53.4389C25.7333 60.1726 23.2343 66.9868 19.3581 72.9484C16.5147 77.321 12.0878 81.1642 10.3482 85.9291C10.2595 86.1693 9.96092 86.3034 9.68238 86.228C9.40286 86.1525 9.24676 85.896 9.33408 85.6563C11.0961 80.8322 15.5532 76.9295 18.4303 72.5032C22.2631 66.6099 24.727 59.8716 26.6851 53.2155C28.3295 47.6261 28.0587 42.0702 27.95 36.4506C27.8387 30.7409 27.8924 24.9666 30.1905 19.0281Z" fill="#E9E967"/>
<path fill-rule="evenodd" clip-rule="evenodd" d="M29.7456 0C35.9072 0 40.9102 6.34095 40.9102 14.1506C40.9102 21.9603 33.151 28.1843 29.7456 28.3008C26.4187 28.4144 18.5815 21.9603 18.5815 14.1506C18.5815 6.34095 23.5841 0 29.7456 0Z" fill="#A4DEE8"/>
<path fill-rule="evenodd" clip-rule="evenodd" d="M24.4558 3.30747C24.5319 3.23412 24.6631 3.22742 24.748 3.2928C24.8343 3.35777 24.8416 3.47052 24.7655 3.54388C24.3685 4.06237 24.0499 4.55068 23.7504 5.03103C23.5367 5.3739 23.3558 5.70377 23.1845 6.03281C23.0387 6.31448 22.9172 6.5928 22.7972 6.86986C22.6777 7.14943 22.5738 7.42859 22.4753 7.70984C22.2792 8.27025 22.1206 8.83862 22.047 9.46274C21.946 10.3136 21.9309 11.2286 22.0694 12.2908C22.0943 12.388 22.0231 12.4853 21.9109 12.5071C21.7972 12.5288 21.685 12.4677 21.6587 12.3704C21.2289 11.2999 20.9591 10.3539 20.8782 9.45017C20.8133 8.72503 20.8655 8.0393 21.0479 7.37913C21.1426 7.04045 21.2816 6.71058 21.4538 6.38993C21.6211 6.08185 21.8211 5.78341 22.0518 5.48959C22.2479 5.24145 22.4577 4.99792 22.7001 4.759C23.2006 4.2644 23.7802 3.8004 24.4558 3.30747ZM38.3565 15.535C38.3535 15.4369 38.4448 15.3556 38.5599 15.3539C38.6735 15.3518 38.7682 15.4302 38.7696 15.5287C38.9331 16.6722 38.8248 17.7385 38.4735 18.7466C38.2287 19.4516 37.8618 20.1155 37.3999 20.7375C37.1286 21.1043 36.8179 21.4526 36.4755 21.78C35.9759 22.2574 35.4101 22.69 34.811 23.0932C34.2276 23.4855 33.6135 23.8439 32.9739 24.1746C32.0198 24.6679 31.031 25.0905 30.0432 25.4744C29.9417 25.523 29.8134 25.492 29.7568 25.4048C29.6998 25.3176 29.7359 25.2074 29.8368 25.1588C30.7125 24.6474 31.57 24.0878 32.4032 23.4876C32.9452 23.097 33.4632 22.6887 33.9627 22.2645C34.4598 21.8429 34.9169 21.399 35.3564 20.9467C35.6501 20.6457 35.9335 20.3423 36.2008 20.0296C36.5369 19.6364 36.854 19.2382 37.1262 18.8128C37.3086 18.5282 37.4784 18.2411 37.6282 17.9393C37.9965 17.1957 38.2652 16.4115 38.3565 15.535Z" fill="white"/>
<path fill-rule="evenodd" clip-rule="evenodd" d="M18.6152 23.2379C18.6703 22.9902 18.9489 22.8275 19.2357 22.8749C19.5245 22.9218 19.7143 23.1612 19.6591 23.4085C18.3518 29.3043 18.3869 34.4951 20.0177 40.3666C21.0416 44.0509 22.3953 47.4058 22.4865 51.2415C22.6562 58.3017 21.0952 65.354 20.4645 72.3199C20.0713 76.6497 20.1977 80.6384 19.8889 84.9859C19.8713 85.2369 19.6191 85.4285 19.3269 85.4134C19.0338 85.3979 18.8113 85.1816 18.8289 84.9301C19.1386 80.5776 19.0123 76.5839 19.406 72.2491C20.0338 65.3129 21.5938 58.2904 21.425 51.2604C21.3353 47.4922 19.9904 44.1981 18.985 40.5783C17.3167 34.5747 17.2791 29.2666 18.6152 23.2379Z" fill="#F198A7"/>
<path fill-rule="evenodd" clip-rule="evenodd" d="M17.0957 1.27783C17.3366 1.03388 17.7249 0.923222 18.1045 0.991125C18.483 1.05903 18.7889 1.29459 18.8947 1.60183L21.4899 9.06486C21.4913 9.06947 21.4948 9.07408 21.4987 9.07743C21.5026 9.0812 21.5074 9.08372 21.5123 9.08581L30.31 11.9407C30.671 12.058 30.9271 12.3301 30.972 12.6461C31.0168 12.9621 30.8446 13.269 30.5251 13.4417L22.7377 17.6391C22.7323 17.642 22.7289 17.6453 22.7265 17.6495C22.7226 17.6537 22.7211 17.6583 22.7211 17.6629L22.2977 25.3708C22.2806 25.6876 22.0494 25.9664 21.6987 26.0938C21.3474 26.2208 20.9357 26.1751 20.6308 25.9748L13.2229 21.1059C13.219 21.1025 13.2127 21.1008 13.2078 21.0996C13.2015 21.0987 13.1956 21.0987 13.1902 21.1L4.13157 23.0084C3.75937 23.0868 3.36132 22.987 3.09887 22.7498C2.83643 22.5125 2.75545 22.1772 2.88668 21.8809L6.09599 14.674C6.09745 14.6698 6.09843 14.6647 6.09746 14.6597C6.09746 14.6551 6.09453 14.6505 6.09209 14.6463L0.915915 8.11841C0.703717 7.85015 0.688595 7.50938 0.877378 7.23567C1.06714 6.96154 1.42812 6.80017 1.81398 6.81736L11.2048 7.23232C11.2112 7.23274 11.2161 7.2319 11.2224 7.2298C11.2273 7.22813 11.2322 7.22477 11.2346 7.22142L17.0957 1.27783Z" fill="#F1BCFF"/>
<path fill-rule="evenodd" clip-rule="evenodd" d="M17.3391 20.0322C17.2664 20.0653 17.1776 20.0418 17.1391 19.9798C17.1015 19.9182 17.1293 19.8415 17.2005 19.8084C17.8708 19.4215 18.4815 19.0082 19.081 18.5836C19.4845 18.2977 19.8689 18.006 20.2489 17.7084C20.5659 17.4603 20.8733 17.2063 21.1791 16.9518C21.485 16.6966 21.7923 16.4434 22.0869 16.1773C22.5762 15.7338 23.0411 15.2719 23.4728 14.7693C23.8977 14.2768 24.2972 13.7633 24.6592 13.2017C24.6933 13.1371 24.7816 13.1078 24.8577 13.1371C24.9328 13.1661 24.9665 13.2423 24.9328 13.3073C24.5421 14.2542 24.066 15.1218 23.4728 15.9178C23.0596 16.4711 22.6016 16.9892 22.0791 17.4611C21.8182 17.6971 21.5386 17.9176 21.245 18.1263C20.9552 18.333 20.6494 18.5245 20.3337 18.7073C20.0537 18.8699 19.7679 19.0237 19.4693 19.1679C18.7927 19.4944 18.0859 19.7719 17.3391 20.0322Z" fill="white"/>
<path fill-rule="evenodd" clip-rule="evenodd" d="M6.90283 10.8418C6.87015 10.8749 6.81405 10.8791 6.77551 10.8514C6.73649 10.8237 6.73161 10.7747 6.76429 10.7416C6.97405 10.4687 7.18235 10.2101 7.40967 9.96448C7.56821 9.79347 7.73065 9.63377 7.90041 9.4812C8.04773 9.34917 8.19797 9.2251 8.35505 9.11025C8.51749 8.99121 8.68481 8.88139 8.85847 8.78499C9.22677 8.58002 9.60873 8.422 9.99703 8.30548C10.6117 8.12189 11.2322 8.04853 11.8644 8.09338C11.9156 8.09297 11.9566 8.12817 11.9566 8.17177C11.9566 8.21536 11.9166 8.25099 11.8653 8.25141C11.4707 8.28578 11.0975 8.37464 10.7278 8.49829C10.3746 8.61691 10.037 8.77535 9.69995 8.96019C9.50775 9.0654 9.32043 9.18276 9.12823 9.30138C8.94189 9.41623 8.75213 9.53359 8.56091 9.65766C8.33895 9.80269 8.11553 9.95149 7.88919 10.1099C7.55943 10.3413 7.22869 10.5773 6.90283 10.8418Z" fill="white"/>
<path fill-rule="evenodd" clip-rule="evenodd" d="M19.9464 36.9801C19.9289 36.7286 20.1513 36.5123 20.4445 36.4977C20.7367 36.4826 20.9879 36.6745 21.0065 36.926C21.4411 43.2129 24.0724 48.9742 23.6416 55.4203C22.8884 66.6876 17.524 77.241 16.0815 88.4014C16.0488 88.6516 15.7869 88.8323 15.4956 88.8046C15.2034 88.7766 14.9937 88.551 15.0264 88.3008C16.4659 77.1564 21.8294 66.6193 22.5816 55.3679C23.0099 48.9587 20.3786 43.2314 19.9464 36.9801Z" fill="#A4DEE8"/>
<path fill-rule="evenodd" clip-rule="evenodd" d="M14.0932 16.7371C19.6054 15.7165 25.5797 20.8645 27.4265 28.2261C29.2739 35.5877 23.805 42.7406 20.7855 43.4146C17.8361 44.0726 9.29895 39.2872 7.45209 31.9256C5.6067 24.5636 8.58089 17.7578 14.0932 16.7371Z" fill="#FFB1BE"/>
<path fill-rule="evenodd" clip-rule="evenodd" d="M12.9571 19.1925C13.0132 19.1418 13.1068 19.1401 13.1654 19.1887C13.2244 19.2369 13.2254 19.3174 13.1693 19.3677C12.5859 19.9759 12.0805 20.6373 11.6268 21.3348C11.3312 21.7904 11.0663 22.2594 10.8253 22.7406C10.6268 23.1376 10.4507 23.542 10.2883 23.9511C10.1258 24.359 9.98339 24.7718 9.85509 25.1872C9.59509 26.0234 9.40923 26.8722 9.34289 27.7319C9.24435 29.0334 9.37655 30.3428 9.85119 31.6124C9.88095 31.6786 9.84241 31.7533 9.76485 31.7788C9.68777 31.8044 9.60143 31.7713 9.57167 31.7051C8.90191 30.4321 8.55361 29.0832 8.51117 27.7181C8.48239 26.7963 8.58727 25.8696 8.83361 24.9676C8.95557 24.5182 9.11947 24.0765 9.31411 23.6456C9.50923 23.2159 9.73899 22.7985 9.99461 22.3931C10.2244 22.0293 10.4741 21.676 10.7493 21.3369C11.3897 20.5438 12.1351 19.8292 12.9571 19.1925Z" fill="white"/>
<path fill-rule="evenodd" clip-rule="evenodd" d="M13.4888 17.9549C13.5278 17.9461 13.5688 17.9663 13.579 17.9998C13.5903 18.0333 13.5664 18.0685 13.5278 18.0773C13.2629 18.1779 13.0405 18.2827 12.8298 18.3842C12.6746 18.4584 12.5376 18.5338 12.4063 18.6097C12.2912 18.6751 12.1878 18.7438 12.0878 18.8138C11.9854 18.885 11.8854 18.9555 11.7956 19.0368C11.6458 19.1713 11.5097 19.3201 11.3873 19.5016C11.2771 19.6664 11.1722 19.8453 11.0761 20.0566C11.0663 20.0914 11.0249 20.1123 10.9849 20.1035C10.9453 20.0951 10.9214 20.0599 10.9312 20.0256C10.9849 19.6492 11.0751 19.3398 11.221 19.072C11.3395 18.854 11.4946 18.6679 11.6893 18.5099C11.7868 18.4319 11.8956 18.3636 12.0151 18.3033C12.1254 18.2475 12.2439 18.1993 12.3727 18.1574C12.4785 18.123 12.5873 18.0916 12.7049 18.066C12.9434 18.0149 13.1981 17.9826 13.4888 17.9549Z" fill="white"/>
<path fill-rule="evenodd" clip-rule="evenodd" d="M39.3355 34.0474C39.4989 33.8383 39.8287 33.7825 40.0721 33.9229C40.3155 34.0629 40.3804 34.3467 40.218 34.5558C37.8618 37.5725 36.7516 40.5883 35.8335 43.6381C34.8945 46.757 34.1554 49.9119 32.552 53.144C30.4563 57.3733 27.4865 60.9638 24.9641 64.9696C21.8333 69.9404 19.5742 75.622 17.5288 80.9842C17.4376 81.2235 17.1366 81.3539 16.8581 81.2755C16.5796 81.1971 16.4274 80.9394 16.5196 80.7C18.584 75.2871 20.8694 69.5535 24.0299 64.5354C26.5363 60.5547 29.4924 56.9889 31.5754 52.7865C33.1564 49.5984 33.8793 46.4858 34.8057 43.4096C35.7525 40.2647 36.9062 37.1584 39.3355 34.0474Z" fill="#E9E967"/>
<path fill-rule="evenodd" clip-rule="evenodd" d="M39.4565 18.1708C39.6975 17.9265 40.0858 17.8158 40.4653 17.8837C40.8438 17.952 41.1487 18.1876 41.256 18.4944L43.8512 25.9578C43.8521 25.9625 43.8561 25.9667 43.8595 25.9704C43.8634 25.9738 43.8682 25.9767 43.8736 25.9784L52.6713 28.8332C53.0323 28.9506 53.2879 29.2231 53.3333 29.5391C53.3781 29.8551 53.2055 30.162 52.8859 30.3342L45.0985 34.532C45.0936 34.5346 45.0897 34.5379 45.0858 34.5421C45.0834 34.5463 45.0824 34.5509 45.0824 34.5559L44.659 42.2633C44.6414 42.5802 44.4102 42.8594 44.0595 42.9864C43.7087 43.1138 43.2965 43.0677 42.9916 42.8678L35.5837 37.9984C35.5803 37.9955 35.574 37.9934 35.5691 37.9926C35.5628 37.9913 35.5564 37.9913 35.5515 37.9926L26.4929 39.9014C26.1207 39.9798 25.7221 39.88 25.4597 39.6424C25.1977 39.4051 25.1153 39.0698 25.2475 38.7735L28.4568 31.567C28.4583 31.5623 28.4597 31.5573 28.4583 31.5527C28.4583 31.5481 28.4558 31.5435 28.4534 31.5393L23.2772 25.0114C23.0645 24.7427 23.0499 24.402 23.2382 24.1282C23.427 23.8545 23.7889 23.6932 24.1748 23.7099L33.5657 24.1249C33.572 24.1253 33.5769 24.1245 33.5822 24.1228C33.5881 24.1207 33.592 24.1178 33.5959 24.114L39.4565 18.1708Z" fill="#E9E967"/>
<path fill-rule="evenodd" clip-rule="evenodd" d="M40.8414 37.7926C40.7741 37.832 40.6828 37.8173 40.6365 37.7595C40.5901 37.7016 40.6077 37.6224 40.675 37.583C41.2048 37.1999 41.6643 36.7929 42.0926 36.3704C42.3848 36.0825 42.6507 35.7878 42.9019 35.4852C43.1116 35.2316 43.3038 34.9717 43.4902 34.7093C43.6775 34.4461 43.8512 34.1778 44.0185 33.9066C44.3541 33.3621 44.6502 32.8022 44.8785 32.2057C45.2146 31.3309 45.4419 30.4071 45.5131 29.412C45.5117 29.3412 45.578 29.2825 45.6605 29.2813C45.7429 29.28 45.8117 29.3366 45.8127 29.4079C45.9288 30.4469 45.8975 31.4387 45.6844 32.3859C45.5331 33.0595 45.2956 33.7067 44.9585 34.314C44.7878 34.6204 44.5853 34.9139 44.359 35.1943C44.137 35.4722 43.8873 35.735 43.6175 35.9865C43.3799 36.2082 43.1292 36.4203 42.857 36.6202C42.255 37.0616 41.5858 37.4455 40.8414 37.7926Z" fill="white"/>
<path fill-rule="evenodd" clip-rule="evenodd" d="M35.7262 23.9536C35.6964 23.9859 35.6413 23.9914 35.6037 23.9658C35.5662 23.9402 35.5603 23.8933 35.5901 23.861C35.7423 23.6389 35.8901 23.423 36.0559 23.2088C36.1672 23.0655 36.2818 22.9284 36.4057 22.793C36.5081 22.6798 36.6155 22.5704 36.7291 22.4661C36.8438 22.3613 36.9638 22.2603 37.0925 22.168C37.3511 21.9811 37.6296 21.8189 37.9228 21.6764C38.3574 21.4647 38.8184 21.3067 39.3179 21.1948C39.3638 21.1797 39.415 21.1994 39.4326 21.2388C39.4492 21.2782 39.4262 21.3218 39.3804 21.3369C38.9443 21.5267 38.5662 21.764 38.2013 22.0234C37.9979 22.1685 37.8067 22.3223 37.613 22.4774C37.4857 22.5801 37.3574 22.6828 37.2272 22.7855C37.1301 22.863 37.0311 22.938 36.9316 23.0143C36.7813 23.13 36.633 23.2444 36.4818 23.3614C36.2272 23.5592 35.975 23.7495 35.7262 23.9536Z" fill="white"/>
<path fill-rule="evenodd" clip-rule="evenodd" d="M26.7085 54.0455C26.7885 53.8032 27.0831 53.6628 27.3656 53.732C27.6465 53.8012 27.8099 54.0535 27.7299 54.2958C25.5948 60.7264 23.0748 65.7789 21.1255 70.4151C19.2035 74.9864 17.8396 79.1465 17.9922 83.8461C18.0518 85.6899 18.2781 87.4374 17.3088 89.7871C17.2117 90.0244 16.9083 90.1489 16.6322 90.065C16.3547 89.9808 16.2112 89.7197 16.3088 89.4824C17.223 87.2638 16.9878 85.6124 16.9308 83.8716C16.7747 79.0556 18.1571 74.7898 20.1264 70.1054C22.0679 65.4859 24.5821 60.4523 26.7085 54.0455Z" fill="#F198A7"/>
<path fill-rule="evenodd" clip-rule="evenodd" d="M27.0007 52.4104C26.6475 52.8006 24.8665 53.688 24.8919 53.8653C24.9167 54.0384 25.666 54.1662 25.8543 54.3066C26.1031 54.4911 26.1704 54.8092 26.4329 54.9903C26.6948 55.1705 27.047 55.1236 27.3431 55.2137C27.9139 55.3868 28.4197 56.179 29.109 55.6333C29.3924 55.4094 29.2812 53.3221 28.9978 53.3074C27.99 53.2563 27.9261 53.0203 27.0007 52.4104Z" fill="#A4DEE8"/>
<path fill-rule="evenodd" clip-rule="evenodd" d="M35.3988 37.2031C40.1945 34.0561 46.0327 36.0157 48.0132 39.0591C49.9937 42.1022 48.118 46.2287 43.3229 49.3757C39.8721 51.785 33.211 53.1163 27.8948 53.7098C24.4548 50.1768 20.6069 45.3179 19.9713 41.5372C18.9288 36.4306 20.8055 32.3036 24.6621 31.2201C28.5192 30.1366 34.3574 32.0966 35.3988 37.2031Z" fill="#A4DEE8"/>
<path fill-rule="evenodd" clip-rule="evenodd" d="M26.4378 32.1319C26.529 32.1122 26.6212 32.1592 26.6451 32.2371C26.6675 32.3147 26.6124 32.3943 26.5226 32.414C25.9768 32.6156 25.5051 32.8872 25.0451 33.1874C24.748 33.3823 24.4821 33.596 24.2236 33.8186C24.0114 34.0014 23.8177 34.195 23.6289 34.392C23.4406 34.5898 23.2543 34.7864 23.0958 35.0019C22.8299 35.3657 22.6065 35.7492 22.4728 36.1801C22.3406 36.6035 22.2631 37.0452 22.2894 37.5289C22.3055 37.6094 22.2431 37.6861 22.1494 37.7004C22.0557 37.7146 21.966 37.6606 21.9494 37.5801C21.666 36.785 21.6421 36.0246 21.827 35.3083C21.9621 34.7864 22.2143 34.2977 22.5704 33.8647C22.7465 33.6497 22.9548 33.4527 23.186 33.2758C23.4104 33.1019 23.6567 32.9476 23.9211 32.8118C24.1538 32.6928 24.3894 32.5842 24.6446 32.4974C25.2153 32.3013 25.8085 32.1831 26.4378 32.1319ZM44.5366 45.0896C44.5653 45.0133 44.66 44.971 44.7502 44.9953C44.8385 45.0201 44.8888 45.1018 44.86 45.1785C44.6078 46.1358 44.2283 46.957 43.7263 47.6737C43.3863 48.1591 42.9868 48.5858 42.5473 48.9723C42.2463 49.2372 41.9229 49.4782 41.5794 49.6974C41.1711 49.9581 40.7341 50.1891 40.2745 50.3869C39.6101 50.6728 38.8984 50.8941 38.1574 51.0764C37.456 51.2495 36.7301 51.3832 35.9847 51.4897C34.9169 51.6423 33.8218 51.7361 32.713 51.8217C32.6193 51.8346 32.5305 51.7797 32.5154 51.6993C32.5008 51.6184 32.5642 51.5425 32.6578 51.5295C33.7281 51.3141 34.7798 51.081 35.8023 50.8169C36.4969 50.6375 37.1686 50.4397 37.8204 50.2205C38.4823 49.9979 39.1116 49.7427 39.716 49.4631C40.1209 49.2757 40.5141 49.0783 40.8926 48.8612C41.3633 48.5908 41.8141 48.2987 42.2326 47.9583C42.5048 47.7353 42.7682 47.5006 43.018 47.2424C43.6039 46.6376 44.1219 45.9405 44.5366 45.0896Z" fill="white"/>
<path fill-rule="evenodd" clip-rule="evenodd" d="M45.8951 42.5016C45.8751 42.4706 45.8888 42.4325 45.9239 42.4157C45.96 42.399 46.0054 42.4103 46.0239 42.4409C46.1785 42.6031 46.3073 42.7515 46.4146 42.9095C46.4673 42.9853 46.5073 43.0608 46.5444 43.1375C46.5898 43.2289 46.6244 43.3198 46.6483 43.4125C46.6747 43.5093 46.6883 43.6074 46.6868 43.705C46.6834 43.8978 46.6381 44.0881 46.5498 44.278C46.4385 44.5123 46.2688 44.7378 46.0263 44.978C46.0039 45.0078 45.9576 45.0166 45.9229 44.9977C45.8878 44.9784 45.8776 44.9386 45.9 44.9084C45.9888 44.737 46.0463 44.579 46.0937 44.4243C46.1449 44.2571 46.1639 44.102 46.1698 43.9477C46.1737 43.8543 46.1639 43.7633 46.1576 43.6711C46.1498 43.5793 46.1415 43.4871 46.1263 43.3928C46.1088 43.2796 46.0888 43.1656 46.0576 43.0449C46.0137 42.8709 45.9688 42.6957 45.8951 42.5016Z" fill="white"/>
<path fill-rule="evenodd" clip-rule="evenodd" d="M19.5308 68.8381C19.2484 68.7203 18.9411 68.6134 18.6264 68.5073C17.5523 68.1465 16.3698 67.8396 15.4132 67.441C13.6927 66.7247 12.6424 65.7141 13.0717 64.061C13.3103 63.1418 14.1059 62.604 15.2883 62.3911C16.9196 62.0968 18.2245 62.7511 19.302 63.8405C19.9513 64.4969 20.5182 65.3138 21.0528 66.0733C21.2279 66.3198 21.3953 66.56 21.5626 66.7825C22.0631 66.3982 22.6089 66.0406 23.2284 65.7917C24.2821 65.3679 26.1182 65.0728 27.4231 65.2484C28.3573 65.3742 29.0476 65.7497 29.37 66.2791C29.6783 66.7863 29.7383 67.5399 29.01 68.5547C28.7968 68.8519 28.4397 69.1222 27.95 69.3255C27.4305 69.5414 26.7309 69.6931 25.9695 69.7652C24.9577 69.8612 23.8304 69.8222 22.906 69.6625C23.0172 70.0632 23.0436 70.4769 23.0211 70.8953C22.9899 71.5127 22.8402 72.1376 22.8275 72.7098C22.7826 74.7561 23.4304 76.5174 24.9992 78.2569C25.3436 78.6387 25.2626 79.1891 24.8182 79.485C24.3733 79.7813 23.7328 79.7113 23.388 79.3295C21.5074 77.2438 20.7357 75.1304 20.7894 72.6767C20.8021 72.0903 20.9528 71.4494 20.9855 70.8165C20.9982 70.5754 20.9952 70.3344 20.9357 70.1022C20.1835 70.689 19.5269 71.3429 18.8513 71.98C17.7259 73.0401 16.5562 74.0565 14.9727 74.7636C13.7649 75.3031 11.4073 75.6174 9.53166 76.1716C9.01068 76.3254 8.53262 76.4977 8.15262 76.7135C7.90286 76.8552 7.69456 77.0057 7.60334 77.2086C7.40236 77.6596 6.81162 77.8851 6.28722 77.7115C5.76283 77.538 5.49892 77.0312 5.70136 76.5802C6.1121 75.661 7.31846 74.9732 8.8697 74.5155C10.6468 73.9907 12.8893 73.7208 14.0322 73.2102C15.3922 72.6025 16.3786 71.7109 17.3454 70.8001C18.0533 70.1332 18.7489 69.4555 19.5308 68.8381ZM23.1397 67.9147C23.1621 67.9193 23.186 67.9235 23.2094 67.9281C23.9611 68.0706 24.9041 68.1045 25.746 68.0249C26.1792 67.9838 26.5836 67.9138 26.9109 67.8053C27.067 67.7533 27.2144 67.7214 27.2758 67.6359C27.388 67.4783 27.4705 67.3379 27.5168 67.2109C27.5305 67.1765 27.5392 67.1304 27.5441 67.0982C27.4631 67.0688 27.2592 66.9988 27.107 66.9783C26.168 66.8521 24.8504 67.0726 24.0914 67.3777C23.7441 67.5177 23.4304 67.7055 23.1397 67.9147ZM19.2157 66.8282C18.9162 66.4086 18.6064 65.9778 18.2781 65.5729C17.9532 65.1696 17.6074 64.7953 17.2206 64.5111C16.7884 64.1951 16.301 63.9977 15.7069 64.1046C15.4035 64.1595 15.1225 64.2068 15.061 64.4428C14.9327 64.9366 15.1913 65.2614 15.6044 65.5179C16.0415 65.7896 16.6108 65.9996 17.2176 66.1995C17.8674 66.4133 18.5576 66.6119 19.2157 66.8282Z" fill="#E9E967"/>
</svg>
