<svg width="70" height="70" viewBox="0 0 70 70" fill="none" xmlns="http://www.w3.org/2000/svg">
<g clip-path="url(#clip0_7_475)">
<path d="M65.7205 0.383789H4.20105C2.09344 0.383789 0.384613 2.09262 0.384613 4.201V65.7205C0.384613 67.8273 2.09268 69.5369 4.20105 69.5369H35.6439V42.7573H26.6318V32.3206H35.6439V24.624C35.6439 15.6918 41.0992 10.8289 49.0671 10.8289C52.8835 10.8289 56.1644 11.1132 57.1203 11.2399V20.5747L51.5935 20.577C47.2607 20.577 46.4216 22.6362 46.4216 25.6574V32.3206H56.7561L55.4099 42.7573H46.4216V69.5369H65.7205C67.8281 69.5369 69.537 67.8281 69.537 65.7197V4.201C69.537 2.09262 67.8281 0.383789 65.7205 0.383789Z" fill="#3C5A99"/>
</g>
<defs>
<clipPath id="clip0_7_475">
<rect width="70" height="70" fill="white"/>
</clipPath>
</defs>
</svg>
