<svg width="70" height="80" viewBox="0 0 70 80" fill="none" xmlns="http://www.w3.org/2000/svg">
<path d="M5.09927 69.6001H16.1006V39.0651L0.384615 25.5938V64.2111C0.384615 67.1932 2.49837 69.6001 5.09927 69.6001Z" fill="#4285F4"/>
<path d="M53.8202 69.6001H64.8215C67.4301 69.6001 69.5362 67.1844 69.5362 64.2119V25.5938L53.8202 39.0651" fill="#34A853"/>
<path d="M53.8202 15.7147V39.065L69.537 25.5937V18.4088C69.537 11.7447 62.8814 7.94598 58.2213 11.9423" fill="#FBBC04"/>
<path d="M16.1014 39.0651V15.7148L34.9608 31.8802L53.8202 15.7148V39.0651L34.9608 55.2305" fill="#EA4335"/>
<path d="M0.384615 18.4088V25.5937L16.1014 39.065V15.7148L11.7002 11.9432C7.03246 7.94599 0.384615 11.7456 0.384615 18.4088Z" fill="#C5221F"/>
</svg>
