<svg width="70" height="70" viewBox="0 0 70 70" fill="none" xmlns="http://www.w3.org/2000/svg">
<g clip-path="url(#clip0_7_453)">
<path d="M69.3287 20.7056C69.1605 17.0251 68.5757 14.5118 67.7213 12.3128C66.8531 10.0054 65.4923 7.91546 63.7335 6.18818C62.007 4.42941 59.9163 3.06711 57.6089 2.19886C55.4099 1.34521 52.8966 0.761262 49.2162 0.593759C45.5288 0.425489 44.3509 0.384766 34.9608 0.384766C25.5707 0.384766 24.3928 0.425489 20.7054 0.592991C17.025 0.761262 14.5117 1.34598 12.3126 2.2004C10.0052 3.06864 7.9153 4.42941 6.18803 6.18818C4.42926 7.91469 3.06696 10.0046 2.19871 12.312C1.34506 14.5118 0.761109 17.0251 0.593607 20.7048C0.424568 24.3929 0.384613 25.5708 0.384613 34.9609C0.384613 44.3518 0.424568 45.5297 0.593607 49.2171C0.761109 52.8968 1.34583 55.4108 2.20101 57.6099C3.06926 59.9165 4.43003 62.0072 6.1888 63.7337C7.9153 65.4925 10.006 66.854 12.3134 67.7215C14.5124 68.5767 17.0257 69.1606 20.7062 69.3289C24.3935 69.4972 25.5714 69.5371 34.9616 69.5371C44.3517 69.5371 45.5296 69.4979 49.2169 69.3289C52.8974 69.1606 55.4107 68.5767 57.6097 67.7215C62.2544 65.9258 65.9257 62.2538 67.7213 57.6099C68.5765 55.41 69.1605 52.8968 69.3287 49.2171C69.497 45.529 69.537 44.3511 69.537 34.9609C69.537 25.5708 69.497 24.3929 69.3287 20.7056ZM63.105 48.9336C62.9513 52.3051 62.3881 54.1353 61.9148 55.354C60.7515 58.3698 58.3681 60.7525 55.353 61.9158C54.1352 62.3891 52.3042 62.9523 48.9326 63.1059C45.2875 63.2727 44.1934 63.3073 34.9608 63.3073C25.7274 63.3073 24.634 63.2727 20.9889 63.1059C17.6181 62.9523 15.7871 62.3891 14.5685 61.9158C13.0672 61.361 11.7087 60.4774 10.593 59.3287C9.44434 58.213 8.56073 56.8553 8.00597 55.3532C7.53266 54.1353 6.96945 52.3043 6.81578 48.9328C6.64982 45.2869 6.61447 44.1935 6.61447 34.9609C6.61447 25.7283 6.64982 24.635 6.81578 20.9891C6.97022 17.6175 7.53266 15.7873 8.00597 14.5687C8.56073 13.0665 9.44434 11.7081 10.593 10.5924C11.7087 9.44372 13.0672 8.56011 14.5693 8.00612C15.7871 7.53204 17.6181 6.96961 20.9897 6.81517C24.6348 6.64997 25.7282 6.61462 34.9608 6.61462C44.1934 6.61462 45.286 6.64997 48.9319 6.8167C52.3034 6.97037 54.1337 7.53358 55.3523 8.00689C56.8536 8.56165 58.2121 9.44526 59.3278 10.5932C60.4765 11.7088 61.3601 13.0673 61.9141 14.5694C62.3881 15.7873 62.9513 17.6183 63.105 20.9899C63.271 24.6357 63.3063 25.7291 63.3063 34.9617C63.3063 44.1943 63.2718 45.2869 63.105 48.9336Z" fill="url(#paint0_linear_7_453)"/>
<path d="M34.96 17.2056C25.1542 17.2056 17.2048 25.155 17.2048 34.9608C17.2048 44.7666 25.1542 52.7161 34.96 52.7161C44.7666 52.7161 52.7153 44.7666 52.7153 34.9608C52.7153 25.155 44.7666 17.2056 34.96 17.2056ZM34.96 46.4862C28.5957 46.4854 23.4354 41.3259 23.4354 34.9608C23.4354 28.5957 28.5949 23.4354 34.9608 23.4354C41.3259 23.4362 46.4862 28.5957 46.4862 34.9608C46.4862 41.3259 41.3259 46.4862 34.96 46.4862Z" fill="url(#paint1_linear_7_453)"/>
<path d="M57.5667 16.5041C57.5667 18.7954 55.7088 20.6533 53.4175 20.6533C51.1255 20.6533 49.2684 18.7954 49.2684 16.5041C49.2684 14.2121 51.1263 12.355 53.4175 12.355C55.7088 12.355 57.5667 14.2129 57.5667 16.5041Z" fill="url(#paint2_linear_7_453)"/>
</g>
<defs>
<linearGradient id="paint0_linear_7_453" x1="6.18788" y1="63.7336" x2="63.7338" y2="6.1878" gradientUnits="userSpaceOnUse">
<stop stop-color="#FFD600"/>
<stop offset="0.5" stop-color="#FF0100"/>
<stop offset="1" stop-color="#D800B9"/>
</linearGradient>
<linearGradient id="paint1_linear_7_453" x1="22.4056" y1="47.5158" x2="47.5153" y2="22.4061" gradientUnits="userSpaceOnUse">
<stop stop-color="#FF6400"/>
<stop offset="0.5" stop-color="#FF0100"/>
<stop offset="1" stop-color="#FD0056"/>
</linearGradient>
<linearGradient id="paint2_linear_7_453" x1="50.4833" y1="19.4382" x2="56.3512" y2="13.5702" gradientUnits="userSpaceOnUse">
<stop stop-color="#F30072"/>
<stop offset="1" stop-color="#E50097"/>
</linearGradient>
<clipPath id="clip0_7_453">
<rect width="70" height="70" fill="white"/>
</clipPath>
</defs>
</svg>
