<svg width="69" height="69" viewBox="0 0 69 69" fill="none" xmlns="http://www.w3.org/2000/svg">
<g clip-path="url(#clip0_7_478)">
<path d="M63.8728 68.5434H5.0499C2.47025 68.5434 0.37912 66.4522 0.37912 63.8726V5.04969C0.37912 2.47004 2.47025 0.378906 5.0499 0.378906H63.8736C66.4524 0.378906 68.5436 2.47004 68.5436 5.04969V63.8733C68.5436 66.4522 66.4524 68.5434 63.8728 68.5434Z" fill="#005BE0"/>
<path d="M51.8001 48.5862L44.9875 43.5072C43.9597 42.7414 42.5775 42.6536 41.4618 43.2845L39.4828 44.4031C38.5338 44.9394 37.3712 44.975 36.4086 44.463C31.2099 41.6955 27.2268 37.7124 24.4594 32.5138C23.9474 31.5511 23.9822 30.3885 24.5192 29.4395L25.6378 27.4605C26.2687 26.3449 26.1809 24.9619 25.4152 23.9349L20.3362 17.1222C18.8994 15.1947 15.9365 15.4522 14.8535 17.5986L12.5768 22.1119C11.5127 24.2212 11.4543 26.7077 12.4526 28.848C18.3094 41.4054 27.5162 50.6122 40.0736 56.469C42.2147 57.4672 44.7004 57.4089 46.8097 56.3448L51.323 54.0681C53.4701 52.9858 53.7277 50.0229 51.8001 48.5862Z" fill="white"/>
<path d="M32.421 11.7397C31.2811 11.7397 30.3578 12.6638 30.3578 13.8029C30.3578 14.942 31.2819 15.8667 32.421 15.8667C43.7991 15.8667 53.0559 25.1235 53.0559 36.5016C53.0559 37.6415 53.9799 38.5655 55.119 38.5655C56.2588 38.5655 57.1828 37.6415 57.1828 36.5016C57.1828 22.8483 46.0743 11.7397 32.421 11.7397Z" fill="white"/>
<path d="M44.8019 36.5016C44.8019 37.6414 45.7259 38.5654 46.865 38.5654C48.0041 38.5654 48.9289 37.6414 48.9289 36.5016C48.9289 27.3993 41.5239 19.9937 32.421 19.9937C31.2811 19.9937 30.3578 20.9177 30.3578 22.0568C30.3578 23.1966 31.2819 24.1206 32.421 24.1206C39.248 24.1206 44.8019 29.6745 44.8019 36.5016Z" fill="white"/>
</g>
<defs>
<clipPath id="clip0_7_478">
<rect width="69" height="69" fill="white"/>
</clipPath>
</defs>
</svg>
